<?xml version="1.0" encoding="UTF-8" standalone="no"?>
<!-- Created with Inkscape (http://www.inkscape.org/) -->

<svg
   width="26.974483mm"
   height="22.21105mm"
   viewBox="0 0 26.974484 22.21105"
   version="1.1"
   id="svg1"
   xml:space="preserve"
   xmlns="http://www.w3.org/2000/svg"
   xmlns:svg="http://www.w3.org/2000/svg"><defs
     id="defs1" /><g
     id="layer1"
     transform="translate(-40.548632,-115.88686)"><path
       id="path1"
       style="fill:#eec498;fill-opacity:1;stroke-width:0.250155"
       d="m 55.142484,115.88686 c -2.176194,2.7695 -4.414704,4.33942 -6.66781,6.65851 1.703847,-0.31796 3.446938,1.0838 3.464905,2.82567 0.201083,-0.29152 0.474877,-0.52525 0.785481,-0.69298 0.372399,-0.76681 0.710195,-1.62219 1.07642,-2.59984 0,0 -1.480827,-0.27698 -2.116666,0.20877 0.328649,-0.61997 2.453249,-1.66715 2.534729,-1.94097 0.44062,-1.46245 0.750259,-2.95846 0.922941,-4.45916 z m -9.485726,10.08673 c -1.286161,1.87014 -2.570549,4.24522 -3.84421,7.49101 -0.558129,1.42224 -1.317735,3.87699 -1.260905,4.63331 0,0 2.047992,-4.41751 2.372982,-4.58473 1.6742,-0.86125 4.006529,-2.1656 6.381006,-4.30051 -0.376475,-0.17301 -0.746131,-0.35532 -1.105876,-0.54622 -0.01685,-0.003 -0.03334,-0.007 -0.05013,-0.01 l -0.972034,-0.355 c -0.821562,-0.47141 -1.426336,-1.3154 -1.515669,-2.28203 -0.0027,-0.0154 -0.0027,-0.0306 -0.0052,-0.046 z" /><path
       d="m 47.981629,127.94983 q 0.409081,0.0708 0.778827,0.0708 0.377613,0 0.739493,-0.0551 0.69229,0.47988 1.72286,0.88896 1.030569,0.41695 2.147674,0.66083 1.124973,0.25174 2.069005,0.25174 1.085638,0 1.72286,-0.19667 0.01573,-0.008 0.03147,0.0315 0.01573,0.0472 -0.0079,0.0551 -0.38548,0.15734 -0.920432,0.26748 -0.534952,0.118 -1.392448,0.118 -3.186111,0 -6.89144,-2.0926 z m 0.676557,0.1888 q -0.731625,0 -1.305912,-0.33828 -0.56642,-0.34614 -0.881097,-0.9283 -0.306811,-0.59002 -0.306811,-1.28231 0,-0.81029 0.409081,-1.38458 0.409081,-0.58215 1.046303,-0.87323 0.645089,-0.29108 1.313779,-0.29108 0.747359,0 1.313779,0.35402 0.56642,0.34614 0.865363,0.92043 0.306811,0.57429 0.306811,1.21937 0,0.7159 -0.377613,1.31378 -0.377613,0.59789 -1.014835,0.94404 -0.629356,0.34614 -1.368848,0.34614 z m 0.267476,-0.1888 q 0.472016,0 0.841763,-0.25175 0.377613,-0.25961 0.59002,-0.75522 0.220274,-0.49562 0.220274,-1.18004 0,-0.73163 -0.243875,-1.29805 -0.236008,-0.57429 -0.684423,-0.89683 -0.440549,-0.32254 -1.038437,-0.32254 -0.77096,0 -1.187907,0.55068 -0.416948,0.54282 -0.416948,1.51045 0,0.75523 0.243875,1.36098 0.243875,0.59789 0.684424,0.94404 0.440548,0.33828 0.991234,0.33828 z m 4.271757,0.1888 q -0.314678,0 -0.582154,-0.15734 -0.267476,-0.1652 -0.424815,-0.47201 -0.157338,-0.31468 -0.157338,-0.74736 0,-0.55856 0.259609,-0.9755 0.267476,-0.42482 0.684423,-0.64509 0.424815,-0.22814 0.881098,-0.22814 0.28321,0 0.534952,0.0944 0.251742,0.0944 0.432681,0.27534 l -0.48775,0.47989 q 0,-0.29895 -0.196673,-0.49562 -0.196674,-0.19667 -0.487751,-0.19667 -0.416948,0 -0.660823,0.40121 -0.243875,0.40121 -0.243875,1.03844 0,0.59002 0.212408,0.92829 0.212407,0.33828 0.59002,0.33828 0.416948,0 0.920432,-0.45628 l 0.06294,0.0551 q -0.346146,0.36188 -0.64509,0.56642 -0.298943,0.19667 -0.69229,0.19667 z m 1.353113,0 q -0.07867,0 -0.149471,-0.20454 -0.06294,-0.20454 -0.06294,-0.52708 v -2.19488 q 0.228141,-0.0629 0.338278,-0.11014 0.110138,-0.0551 0.220275,-0.18094 0.0079,-0.008 0.0236,-0.008 0.01573,0 0.03147,0.0157 0.0236,0.008 0.0236,0.0236 v 2.24208 q 0,0.24387 0.05507,0.35401 0.05507,0.10227 0.180939,0.10227 0.110138,0 0.354013,-0.10227 h 0.0079 q 0.03147,0 0.0472,0.0393 0.0236,0.0315 0,0.0472 l -1.030569,0.49562 q -0.01573,0.008 -0.03933,0.008 z m 1.368846,-0.0944 q -0.0236,0 -0.0236,-0.0472 0,-0.0472 0.0236,-0.0472 0.267476,0 0.354012,-0.11014 0.0944,-0.11014 0.0944,-0.43268 V 123.387 q 0,-0.27534 -0.05507,-0.39335 -0.0472,-0.12587 -0.173073,-0.12587 -0.118004,0 -0.322545,0.0944 h -0.0079 q -0.03147,0 -0.0472,-0.0393 -0.01573,-0.0393 0,-0.0551 l 1.109238,-0.51922 0.03147,-0.008 q 0.03147,0 0.0708,0.0315 0.03933,0.0315 0.03933,0.0551 v 4.97978 q 0,0.32254 0.08654,0.43268 0.0944,0.11014 0.361879,0.11014 0.0236,0 0.0236,0.0472 0,0.0472 -0.0236,0.0472 -0.196674,0 -0.314678,-0.008 l -0.456282,-0.008 -0.456283,0.008 q -0.118004,0.008 -0.314677,0.008 z m 3.217574,0.0944 q -0.314678,0 -0.582154,-0.15734 -0.267476,-0.1652 -0.424814,-0.47201 -0.157339,-0.31468 -0.157339,-0.74736 0,-0.55856 0.259609,-0.9755 0.267476,-0.42482 0.684424,-0.64509 0.424814,-0.22814 0.881097,-0.22814 0.28321,0 0.534952,0.0944 0.251742,0.0944 0.432682,0.27534 l -0.487751,0.47989 q 0,-0.29895 -0.196673,-0.49562 -0.196674,-0.19667 -0.487751,-0.19667 -0.416947,0 -0.660822,0.40121 -0.243876,0.40121 -0.243876,1.03844 0,0.59002 0.212408,0.92829 0.212407,0.33828 0.59002,0.33828 0.416948,0 0.920432,-0.45628 l 0.06294,0.0551 q -0.346146,0.36188 -0.645089,0.56642 -0.298944,0.19667 -0.692291,0.19667 z m 1.353114,0 q -0.07867,0 -0.149472,-0.20454 -0.06294,-0.20454 -0.06294,-0.52708 v -2.19488 q 0.228142,-0.0629 0.338279,-0.11014 0.110137,-0.0551 0.220274,-0.18094 0.0079,-0.008 0.0236,-0.008 0.01573,0 0.03147,0.0157 0.0236,0.008 0.0236,0.0236 v 2.24208 q 0,0.24387 0.05507,0.35401 0.05507,0.10227 0.18094,0.10227 0.110137,0 0.354012,-0.10227 h 0.0079 q 0.03147,0 0.0472,0.0393 0.0236,0.0315 0,0.0472 l -1.030569,0.49562 q -0.01573,0.008 -0.03933,0.008 z m 5.475388,-0.0944 q -0.0236,0 -0.0236,-0.0472 0,-0.0472 0.0236,-0.0472 0.259609,0 0.354012,-0.11014 0.0944,-0.11801 0.0944,-0.43268 v -1.17218 q 0,-0.44055 -0.157339,-0.65295 -0.149471,-0.21241 -0.464149,-0.21241 -0.251742,0 -0.503484,0.1416 -0.243875,0.14161 -0.409081,0.38548 l -0.03933,-0.0944 q 0.605755,-0.8811 1.33738,-0.8811 0.416948,0 0.637222,0.24388 0.228141,0.23601 0.228141,0.72376 v 1.51832 q 0,0.32254 0.08654,0.43268 0.0944,0.11014 0.361879,0.11014 0.03147,0 0.03147,0.0472 0,0.0472 -0.03147,0.0472 -0.196674,0 -0.314678,-0.008 l -0.448415,-0.008 -0.448416,0.008 q -0.118004,0.008 -0.314677,0.008 z m -2.053272,0 q -0.0236,0 -0.0236,-0.0472 0,-0.0472 0.0236,-0.0472 0.267476,0 0.354013,-0.11014 0.0944,-0.11014 0.0944,-0.43268 v -1.17218 q 0,-0.44055 -0.157339,-0.65295 -0.149472,-0.21241 -0.464149,-0.21241 -0.251743,0 -0.503485,0.1416 -0.243875,0.14161 -0.40908,0.38548 l -0.03934,-0.0944 q 0.605754,-0.8811 1.33738,-0.8811 0.416947,0 0.637222,0.23601 0.228141,0.22814 0.228141,0.66869 v 1.58126 q 0,0.32254 0.0944,0.43268 0.0944,0.11014 0.36188,0.11014 0.0236,0 0.0236,0.0472 0,0.0472 -0.0236,0.0472 -0.204541,0 -0.322545,-0.008 l -0.448416,-0.008 -0.448415,0.008 q -0.118004,0.008 -0.314678,0.008 z m -2.021803,0 q -0.0236,0 -0.0236,-0.0472 0,-0.0472 0.0236,-0.0472 0.267476,0 0.354012,-0.11014 0.08654,-0.11014 0.08654,-0.43268 v -1.50259 q 0,-0.25174 -0.06294,-0.36975 -0.05507,-0.118 -0.188807,-0.118 -0.118004,0 -0.393347,0.118 h -0.0079 q -0.03147,0 -0.0472,-0.0393 -0.01573,-0.0393 0.0079,-0.0472 l 1.030569,-0.50349 q 0.0472,-0.0157 0.05507,-0.0157 0.08654,0 0.165206,0.19667 0.07867,0.19668 0.07867,0.51136 v 1.77006 q 0,0.32254 0.08654,0.43268 0.0944,0.11014 0.361879,0.11014 0.0236,0 0.0236,0.0472 0,0.0472 -0.0236,0.0472 -0.196673,0 -0.314678,-0.008 l -0.448415,-0.008 -0.456283,0.008 q -0.110137,0.008 -0.30681,0.008 z"
       id="text1"
       style="font-weight:600;font-size:7.86694px;font-family:'Cormorant Infant';-inkscape-font-specification:'Cormorant Infant Semi-Bold';fill:#003f3f;stroke-width:0.264583"
       aria-label="Qalam" /></g></svg>
