<?xml version="1.0" encoding="UTF-8" standalone="no"?>
<!-- Created with Inkscape (http://www.inkscape.org/) -->

<svg
   width="19.126982mm"
   height="10.147839mm"
   viewBox="0 0 19.126982 10.147839"
   version="1.1"
   id="svg1"
   xml:space="preserve"
   xmlns="http://www.w3.org/2000/svg"
   xmlns:svg="http://www.w3.org/2000/svg"><defs
     id="defs1" /><g
     id="layer1"
     transform="translate(-56.92574,-88.081146)"><path
       style="font-weight:600;font-size:7.05556px;font-family:'Cormorant Infant';-inkscape-font-specification:'Cormorant Infant Semi-Bold';fill:#001a1a;fill-opacity:1;stroke-width:0.264583"
       d="m 58.555574,96.352208 q 0.366889,0.0635 0.6985,0.0635 0.338667,0 0.663223,-0.04939 0.620889,0.430389 1.545168,0.797278 0.924278,0.373945 1.926168,0.592667 1.008945,0.225778 1.855612,0.225778 0.973667,0 1.545168,-0.176389 0.01411,-0.0071 0.02822,0.02822 0.01411,0.04233 -0.0071,0.04939 -0.345722,0.141111 -0.8255,0.239889 -0.479778,0.105834 -1.248834,0.105834 -2.857502,0 -6.180671,-1.876779 z m 0.606778,0.169333 q -0.656167,0 -1.171223,-0.303389 -0.508,-0.310445 -0.790223,-0.832556 -0.275166,-0.529167 -0.275166,-1.150056 0,-0.726723 0.366889,-1.241779 0.366889,-0.522111 0.938389,-0.783167 0.578556,-0.261056 1.178279,-0.261056 0.670278,0 1.178278,0.3175 0.508001,0.310445 0.776112,0.825501 0.275167,0.515056 0.275167,1.093612 0,0.642056 -0.338667,1.178278 -0.338667,0.536223 -0.910167,0.846667 -0.564445,0.310445 -1.227668,0.310445 z m 0.239889,-0.169333 q 0.423334,0 0.754945,-0.225778 0.338667,-0.232834 0.529167,-0.677334 0.197556,-0.4445 0.197556,-1.058334 0,-0.656167 -0.218723,-1.164167 -0.211666,-0.515056 -0.613833,-0.804334 -0.395112,-0.289278 -0.931334,-0.289278 -0.691445,0 -1.06539,0.493889 -0.373945,0.486834 -0.373945,1.354667 0,0.677334 0.218723,1.220612 0.218722,0.536223 0.613834,0.846668 0.395111,0.303389 0.889,0.303389 z m 3.831177,0.169333 q -0.282223,0 -0.522112,-0.141111 -0.239889,-0.148167 -0.381,-0.423334 -0.141111,-0.282222 -0.141111,-0.670278 0,-0.500945 0.232833,-0.874889 0.239889,-0.381001 0.613834,-0.578556 0.381,-0.204612 0.790223,-0.204612 0.254,0 0.479778,0.08467 0.225778,0.08467 0.388056,0.246945 l -0.437445,0.430389 q 0,-0.268111 -0.176389,-0.4445 -0.176389,-0.176389 -0.437445,-0.176389 -0.373945,0 -0.592667,0.359833 -0.218722,0.359834 -0.218722,0.931334 0,0.529167 0.1905,0.832556 0.1905,0.303389 0.529167,0.303389 0.373945,0 0.8255,-0.409222 l 0.05644,0.04939 q -0.310445,0.324556 -0.578556,0.508 -0.268111,0.176389 -0.620889,0.176389 z m 1.213556,0 q -0.07056,0 -0.134056,-0.183444 -0.05644,-0.183445 -0.05644,-0.472723 v -1.968501 q 0.204611,-0.05644 0.303389,-0.09878 0.09878,-0.04939 0.197556,-0.162278 0.0071,-0.0071 0.02117,-0.0071 0.01411,0 0.02822,0.01411 0.02117,0.0071 0.02117,0.02117 v 2.010835 q 0,0.218722 0.04939,0.3175 0.04939,0.09172 0.162278,0.09172 0.09878,0 0.3175,-0.09172 h 0.0071 q 0.02822,0 0.04233,0.03528 0.02117,0.02822 0,0.04233 l -0.924278,0.444501 q -0.01411,0.0071 -0.03528,0.0071 z m 4.084525,0 q -0.282223,0 -0.522112,-0.141111 -0.239889,-0.148167 -0.381,-0.423334 -0.141111,-0.282222 -0.141111,-0.670278 0,-0.500945 0.232833,-0.874889 0.239889,-0.381001 0.613834,-0.578556 0.381,-0.204612 0.790223,-0.204612 0.254,0 0.479778,0.08467 0.225778,0.08467 0.388056,0.246945 l -0.437445,0.430389 q 0,-0.268111 -0.176389,-0.4445 -0.176389,-0.176389 -0.437445,-0.176389 -0.373945,0 -0.592667,0.359833 -0.218722,0.359834 -0.218722,0.931334 0,0.529167 0.1905,0.832556 0.1905,0.303389 0.529167,0.303389 0.373944,0 0.8255,-0.409222 l 0.05644,0.04939 q -0.310445,0.324556 -0.578556,0.508 -0.268111,0.176389 -0.620889,0.176389 z m 1.213556,0 q -0.07056,0 -0.134056,-0.183444 -0.05644,-0.183445 -0.05644,-0.472723 v -1.968501 q 0.204611,-0.05644 0.303389,-0.09878 0.09878,-0.04939 0.197556,-0.162278 0.0071,-0.0071 0.02117,-0.0071 0.01411,0 0.02822,0.01411 0.02117,0.0071 0.02117,0.02117 v 2.010835 q 0,0.218722 0.04939,0.3175 0.04939,0.09172 0.162278,0.09172 0.09878,0 0.3175,-0.09172 h 0.0071 q 0.02822,0 0.04233,0.03528 0.02117,0.02822 0,0.04233 l -0.924278,0.444501 q -0.01411,0.0071 -0.03528,0.0071 z m 4.910668,-0.08467 q -0.02117,0 -0.02117,-0.04233 0,-0.04233 0.02117,-0.04233 0.232834,0 0.3175,-0.09878 0.08467,-0.105834 0.08467,-0.388056 v -1.051278 q 0,-0.395112 -0.141111,-0.585612 -0.134056,-0.1905 -0.416278,-0.1905 -0.225778,0 -0.451556,0.127 -0.218722,0.127 -0.366889,0.345722 l -0.03528,-0.08467 q 0.543278,-0.790223 1.199445,-0.790223 0.373945,0 0.571501,0.218722 0.204611,0.211667 0.204611,0.649112 v 1.361723 q 0,0.289278 0.07761,0.388056 0.08467,0.09878 0.324556,0.09878 0.02822,0 0.02822,0.04233 0,0.04233 -0.02822,0.04233 -0.176389,0 -0.282222,-0.0071 l -0.402167,-0.0071 -0.402167,0.0071 q -0.105834,0.0071 -0.282223,0.0071 z m -1.841501,0 q -0.02117,0 -0.02117,-0.04233 0,-0.04233 0.02117,-0.04233 0.239889,0 0.3175,-0.09878 0.08467,-0.09878 0.08467,-0.388056 v -1.051278 q 0,-0.395112 -0.141111,-0.585612 -0.134056,-0.1905 -0.416278,-0.1905 -0.225778,0 -0.451556,0.127 -0.218722,0.127 -0.366889,0.345722 l -0.03528,-0.08467 q 0.543278,-0.790223 1.199445,-0.790223 0.373945,0 0.571501,0.211667 0.204611,0.204611 0.204611,0.599722 v 1.418168 q 0,0.289278 0.08467,0.388056 0.08467,0.09878 0.324555,0.09878 0.02117,0 0.02117,0.04233 0,0.04233 -0.02117,0.04233 -0.183444,0 -0.289278,-0.0071 l -0.402167,-0.0071 -0.402167,0.0071 q -0.105833,0.0071 -0.282222,0.0071 z m -1.813279,0 q -0.02117,0 -0.02117,-0.04233 0,-0.04233 0.02117,-0.04233 0.239889,0 0.3175,-0.09878 0.07761,-0.09878 0.07761,-0.388056 v -1.347612 q 0,-0.225778 -0.05644,-0.331611 -0.04939,-0.105834 -0.169333,-0.105834 -0.105834,0 -0.352778,0.105834 h -0.0071 q -0.02822,0 -0.04233,-0.03528 -0.01411,-0.03528 0.0071,-0.04233 l 0.924279,-0.451556 q 0.04233,-0.01411 0.04939,-0.01411 0.07761,0 0.148167,0.176389 0.07056,0.176389 0.07056,0.458611 v 1.587501 q 0,0.289278 0.07761,0.388056 0.08467,0.09878 0.324556,0.09878 0.02117,0 0.02117,0.04233 0,0.04233 -0.02117,0.04233 -0.176389,0 -0.282223,-0.0071 l -0.402167,-0.0071 -0.409222,0.0071 q -0.09878,0.0071 -0.275167,0.0071 z"
       id="text1"
       aria-label="Qa am" /><path
       d="m 68.387793,89.614989 c -0.0688,-0.51745 -0.188041,-1.03204 -0.355413,-1.533843 -0.664157,2.224483 -1.487276,2.914664 -1.955373,7.058068 -0.06435,0.569558 0.0632,1.250262 0.114345,1.496239 0.0049,0.02385 -0.03441,0.04181 -0.006,0.124452 0,0 0.02561,-0.04094 0.0346,-0.02685 0.0173,0.02706 0.02183,0.04533 0.03318,-0.05861 0.0494,-0.455128 0.152281,-1.570947 0.216486,-1.635593 0.489119,-0.492413 0.798164,-1.337822 1.317627,-2.409761 0,0 -0.318114,0.408854 -0.700381,0.316274 0.34765,-0.139894 0.846497,-0.847835 0.920279,-1.146489 0.110789,-0.448452 0.535251,-0.961715 0.498131,-1.581868 0,0 -0.472255,0.161698 -0.701507,0.288294 0.01996,-0.234161 0.597283,-0.793542 0.58406,-0.890311 z"
       id="path1"
       style="fill:#008080;stroke-width:0.0892979" /></g></svg>
