<?xml version="1.0" encoding="UTF-8" standalone="no"?>
<!-- Created with Inkscape (http://www.inkscape.org/) -->

<svg
   width="32.802872mm"
   height="8.266284mm"
   viewBox="0 0 32.802873 8.266284"
   version="1.1"
   id="svg1"
   xml:space="preserve"
   sodipodi:docname="logo-v4.svg"
   xmlns:inkscape="http://www.inkscape.org/namespaces/inkscape"
   xmlns:sodipodi="http://sodipodi.sourceforge.net/DTD/sodipodi-0.dtd"
   xmlns="http://www.w3.org/2000/svg"
   xmlns:svg="http://www.w3.org/2000/svg"><sodipodi:namedview
     id="namedview1"
     pagecolor="#ffffff"
     bordercolor="#000000"
     borderopacity="0.25"
     inkscape:showpageshadow="2"
     inkscape:pageopacity="0.0"
     inkscape:pagecheckerboard="0"
     inkscape:deskcolor="#d1d1d1"
     inkscape:document-units="mm"
     inkscape:zoom="3.49611"
     inkscape:cx="91.530302"
     inkscape:cy="15.159706"
     inkscape:window-width="1728"
     inkscape:window-height="1051"
     inkscape:window-x="0"
     inkscape:window-y="38"
     inkscape:window-maximized="1"
     inkscape:current-layer="layer1"
     showgrid="false"
     showguides="true"><inkscape:grid
       id="grid153"
       units="mm"
       originx="-245.86711"
       originy="-256.83044"
       spacingx="1"
       spacingy="0.99999999"
       empcolor="#0099e5"
       empopacity="0.30196078"
       color="#0099e5"
       opacity="0.14901961"
       empspacing="5"
       dotted="false"
       gridanglex="30"
       gridanglez="30"
       visible="false" /></sodipodi:namedview><defs
     id="defs1" /><g
     id="layer1"
     transform="translate(-290.31686,-373.77679)"><path
       d="m 303.57824,379.8866 q 0.40908,0.0708 0.77883,0.0708 0.37761,0 0.73949,-0.0551 0.69229,0.47988 1.72286,0.88896 1.03057,0.41695 2.14767,0.66083 1.12498,0.25174 2.06901,0.25174 1.08564,0 1.72286,-0.19667 0.0157,-0.008 0.0315,0.0315 0.0157,0.0472 -0.008,0.0551 -0.38548,0.15734 -0.92043,0.26748 -0.53496,0.118 -1.39245,0.118 -3.18611,0 -6.89144,-2.0926 z m 0.67656,0.1888 q -0.73163,0 -1.30592,-0.33828 -0.56642,-0.34614 -0.88109,-0.9283 -0.30681,-0.59002 -0.30681,-1.28231 0,-0.81029 0.40908,-1.38458 0.40908,-0.58215 1.0463,-0.87323 0.64509,-0.29108 1.31378,-0.29108 0.74736,0 1.31378,0.35402 0.56642,0.34614 0.86536,0.92043 0.30681,0.57429 0.30681,1.21937 0,0.7159 -0.37761,1.31378 -0.37761,0.59789 -1.01484,0.94404 -0.62935,0.34614 -1.36884,0.34614 z m 0.26747,-0.1888 q 0.47202,0 0.84176,-0.25175 0.37762,-0.25961 0.59002,-0.75522 0.22028,-0.49562 0.22028,-1.18004 0,-0.73163 -0.24388,-1.29805 -0.236,-0.57429 -0.68442,-0.89683 -0.44055,-0.32254 -1.03844,-0.32254 -0.77096,0 -1.1879,0.55068 -0.41695,0.54282 -0.41695,1.51045 0,0.75523 0.24387,1.36098 0.24388,0.59789 0.68443,0.94404 0.44055,0.33828 0.99123,0.33828 z m 4.27176,0.1888 q -0.31468,0 -0.58216,-0.15734 -0.26747,-0.1652 -0.42481,-0.47201 -0.15734,-0.31468 -0.15734,-0.74736 0,-0.55856 0.25961,-0.9755 0.26748,-0.42482 0.68442,-0.64509 0.42482,-0.22814 0.8811,-0.22814 0.28321,0 0.53495,0.0944 0.25175,0.0944 0.43268,0.27534 l -0.48775,0.47989 q 0,-0.29895 -0.19667,-0.49562 -0.19667,-0.19667 -0.48775,-0.19667 -0.41695,0 -0.66082,0.40121 -0.24388,0.40121 -0.24388,1.03844 0,0.59002 0.21241,0.92829 0.21241,0.33828 0.59002,0.33828 0.41695,0 0.92043,-0.45628 l 0.0629,0.0551 q -0.34614,0.36188 -0.64509,0.56642 -0.29894,0.19667 -0.69229,0.19667 z m 1.35311,0 q -0.0787,0 -0.14947,-0.20454 -0.0629,-0.20454 -0.0629,-0.52708 v -2.19488 q 0.22814,-0.0629 0.33828,-0.11014 0.11014,-0.0551 0.22027,-0.18094 0.008,-0.008 0.0236,-0.008 0.0157,0 0.0315,0.0157 0.0236,0.008 0.0236,0.0236 v 2.24208 q 0,0.24387 0.0551,0.35401 0.0551,0.10227 0.18094,0.10227 0.11014,0 0.35402,-0.10227 h 0.008 q 0.0315,0 0.0472,0.0393 0.0236,0.0315 0,0.0472 l -1.03057,0.49562 q -0.0157,0.008 -0.0393,0.008 z m 1.36885,-0.0944 q -0.0236,0 -0.0236,-0.0472 0,-0.0472 0.0236,-0.0472 0.26747,0 0.35401,-0.11014 0.0944,-0.11014 0.0944,-0.43268 v -4.02001 q 0,-0.27534 -0.0551,-0.39335 -0.0472,-0.12587 -0.17307,-0.12587 -0.11801,0 -0.32255,0.0944 h -0.008 q -0.0315,0 -0.0472,-0.0393 -0.0157,-0.0393 0,-0.0551 l 1.10924,-0.51922 0.0315,-0.008 q 0.0315,0 0.0708,0.0315 0.0393,0.0315 0.0393,0.0551 v 4.97978 q 0,0.32254 0.0865,0.43268 0.0944,0.11014 0.36188,0.11014 0.0236,0 0.0236,0.0472 0,0.0472 -0.0236,0.0472 -0.19668,0 -0.31468,-0.008 l -0.45628,-0.008 -0.45628,0.008 q -0.11801,0.008 -0.31468,0.008 z m 3.21757,0.0944 q -0.31468,0 -0.58215,-0.15734 -0.26748,-0.1652 -0.42482,-0.47201 -0.15734,-0.31468 -0.15734,-0.74736 0,-0.55856 0.25961,-0.9755 0.26748,-0.42482 0.68443,-0.64509 0.42481,-0.22814 0.88109,-0.22814 0.28321,0 0.53496,0.0944 0.25174,0.0944 0.43268,0.27534 l -0.48775,0.47989 q 0,-0.29895 -0.19668,-0.49562 -0.19667,-0.19667 -0.48775,-0.19667 -0.41694,0 -0.66082,0.40121 -0.24387,0.40121 -0.24387,1.03844 0,0.59002 0.2124,0.92829 0.21241,0.33828 0.59002,0.33828 0.41695,0 0.92044,-0.45628 l 0.0629,0.0551 q -0.34615,0.36188 -0.64509,0.56642 -0.29895,0.19667 -0.69229,0.19667 z m 1.35312,0 q -0.0787,0 -0.14948,-0.20454 -0.0629,-0.20454 -0.0629,-0.52708 v -2.19488 q 0.22815,-0.0629 0.33828,-0.11014 0.11014,-0.0551 0.22028,-0.18094 0.008,-0.008 0.0236,-0.008 0.0157,0 0.0315,0.0157 0.0236,0.008 0.0236,0.0236 v 2.24208 q 0,0.24387 0.0551,0.35401 0.0551,0.10227 0.18094,0.10227 0.11013,0 0.35401,-0.10227 h 0.008 q 0.0315,0 0.0472,0.0393 0.0236,0.0315 0,0.0472 l -1.03057,0.49562 q -0.0157,0.008 -0.0393,0.008 z m 5.47538,-0.0944 q -0.0236,0 -0.0236,-0.0472 0,-0.0472 0.0236,-0.0472 0.25961,0 0.35402,-0.11014 0.0944,-0.11801 0.0944,-0.43268 v -1.17218 q 0,-0.44055 -0.15734,-0.65295 -0.14947,-0.21241 -0.46415,-0.21241 -0.25174,0 -0.50349,0.1416 -0.24387,0.14161 -0.40908,0.38548 l -0.0393,-0.0944 q 0.60576,-0.8811 1.33738,-0.8811 0.41695,0 0.63722,0.24388 0.22815,0.23601 0.22815,0.72376 v 1.51832 q 0,0.32254 0.0865,0.43268 0.0944,0.11014 0.36187,0.11014 0.0315,0 0.0315,0.0472 0,0.0472 -0.0315,0.0472 -0.19667,0 -0.31467,-0.008 l -0.44842,-0.008 -0.44841,0.008 q -0.11801,0.008 -0.31468,0.008 z m -2.05327,0 q -0.0236,0 -0.0236,-0.0472 0,-0.0472 0.0236,-0.0472 0.26748,0 0.35401,-0.11014 0.0944,-0.11014 0.0944,-0.43268 v -1.17218 q 0,-0.44055 -0.15733,-0.65295 -0.14948,-0.21241 -0.46415,-0.21241 -0.25175,0 -0.50349,0.1416 -0.24387,0.14161 -0.40908,0.38548 l -0.0393,-0.0944 q 0.60576,-0.8811 1.33738,-0.8811 0.41695,0 0.63722,0.23601 0.22814,0.22814 0.22814,0.66869 v 1.58126 q 0,0.32254 0.0944,0.43268 0.0944,0.11014 0.36188,0.11014 0.0236,0 0.0236,0.0472 0,0.0472 -0.0236,0.0472 -0.20454,0 -0.32254,-0.008 l -0.44842,-0.008 -0.44841,0.008 q -0.11801,0.008 -0.31468,0.008 z m -2.0218,0 q -0.0236,0 -0.0236,-0.0472 0,-0.0472 0.0236,-0.0472 0.26747,0 0.35401,-0.11014 0.0865,-0.11014 0.0865,-0.43268 v -1.50259 q 0,-0.25174 -0.0629,-0.36975 -0.0551,-0.118 -0.18881,-0.118 -0.118,0 -0.39334,0.118 h -0.008 q -0.0315,0 -0.0472,-0.0393 -0.0157,-0.0393 0.008,-0.0472 l 1.03057,-0.50349 q 0.0472,-0.0157 0.0551,-0.0157 0.0865,0 0.1652,0.19667 0.0787,0.19668 0.0787,0.51136 v 1.77006 q 0,0.32254 0.0865,0.43268 0.0944,0.11014 0.36188,0.11014 0.0236,0 0.0236,0.0472 0,0.0472 -0.0236,0.0472 -0.19667,0 -0.31468,-0.008 l -0.44841,-0.008 -0.45629,0.008 q -0.11013,0.008 -0.30681,0.008 z"
       id="text1"
       style="font-weight:600;font-size:7.86694px;font-family:'Cormorant Infant';-inkscape-font-specification:'Cormorant Infant Semi-Bold';display:inline;fill:#003f3f;stroke-width:0.264583"
       aria-label="Qalam" /><rect
       style="fill:#003f3f;fill-opacity:1;stroke-width:0.110917"
       id="rect153"
       width="8.266284"
       height="8.266284"
       x="290.31686"
       y="373.77679"
       ry="1.3359358" /><path
       d="m 296.26852,375.95872 a 4.6950908,5.8359685 19.12318 0 0 0.25329,-1.29209 c -1.27073,1.61004 -2.64152,1.85415 -3.91554,5.14249 -0.16019,0.41344 -0.3754,1.12599 -0.35415,1.34405 0,0 0.59228,-1.28567 0.68918,-1.33559 0.54329,-0.27989 1.31829,-0.71446 2.08336,-1.44572 0,0 -0.6324,0.0874 -0.89343,-0.0712 0.31417,-0.0328 1.28091,-0.39914 1.43973,-0.61875 0.23848,-0.32975 0.39722,-0.72236 0.58125,-1.22094 0,0 -0.4473,-0.0725 -0.63601,0.071 0.0955,-0.18066 0.72929,-0.49376 0.75232,-0.57322 z"
       id="path1"
       style="display:inline;fill:#eec498;fill-opacity:1;stroke-width:0.0737483" /></g></svg>
